<svg width="32" height="32" fill="none" xmlns="http://www.w3.org/2000/svg"><path d="M16 32A16 16 0 010 16 16 16 0 0116 0a16 16 0 0116 16 16 16 0 01-16 16zm9.4-24a6 6 0 00-.6.3l-.6.4-.5.4-.7.2A3.7 3.7 0 0020.2 8c-2.5 0-3.7 1-3.7 3v2c-3.4-.3-6-1.5-7.7-3.8-.5.6-.8 1.2-.8 1.8 0 1.4.5 2.4 1.5 3.1h-1L8 14a3.5 3.5 0 002.9 3.6 1 1 0 01-.9.4c-.3 0-.6 0-.9-.3 0 .8.4 1.5 1.2 2 .8.4 1.7.6 2.6.6-.3.6-.9 1-1.6 1.3-.7.3-1.5.4-2.3.4-.3 0-.7 0-1.2-.2l-.8-.2c.3.6 1 1.2 2 1.7s2.4.7 4 .7a10.3 10.3 0 009.2-5.5A13 13 0 0024 12l.4-.3.9-.5.7-.7h-2.3c.8-.4 1.3-1.3 1.7-2.5z" fill="#fff"/></svg>